<svg id="Layer_1" data-name="Layer 1" xmlns="http://www.w3.org/2000/svg" viewBox="0 0 749.09 133.46"><defs><style>.cls-1{fill:#ff610a;}</style></defs><path d="M313.59,131.27V22.43H276.4V3.65h97.91V22.43H336.93V131.27Z"/><path d="M381.15,131.27V40.84h20.78l2.19,17a37.77,37.77,0,0,1,13.4-13.95,37.39,37.39,0,0,1,20-5.2V63.27h-6.56a37,37,0,0,0-13.67,2.37,18.34,18.34,0,0,0-9.39,8.2q-3.37,5.84-3.38,16.23v41.2Z"/><path d="M484.52,133.46q-11.67,0-19.14-3.74a25.81,25.81,0,0,1-11.12-9.93,26.39,26.39,0,0,1-3.65-13.68,24.89,24.89,0,0,1,9.84-20.42q9.85-7.83,29.54-7.84h23V75.66q0-9.28-5.28-13.67a19.92,19.92,0,0,0-13.13-4.38A22.54,22.54,0,0,0,482.15,61a14.5,14.5,0,0,0-6.56,9.93H452.8a31.71,31.71,0,0,1,6.65-17.13,37.34,37.34,0,0,1,14.86-11.22,51.25,51.25,0,0,1,20.42-3.92q19.32,0,30.45,9.67T536.3,75.66v55.61H516.43l-2.19-14.58a33.76,33.76,0,0,1-11.21,12Q495.82,133.46,484.52,133.46Zm5.29-18.23q10,0,15.59-6.57a32,32,0,0,0,7-16.22H492.54q-9.3,0-13.31,3.37a10.45,10.45,0,0,0-4,8.3,9.56,9.56,0,0,0,4,8.2Q483.25,115.24,489.81,115.23Z"/><path d="M599.85,133.46q-13.86,0-24.43-6a43.73,43.73,0,0,1-16.69-16.77,49,49,0,0,1-6.1-24.61,49,49,0,0,1,6.1-24.62,43.73,43.73,0,0,1,16.69-16.77q10.56-6,24.43-6,17.31,0,29.17,9t15.13,24.88H619.54a18.08,18.08,0,0,0-7.2-10.3,22.62,22.62,0,0,0-29.08,3.56q-6.75,7.29-6.75,20.24t6.75,20.23a21.47,21.47,0,0,0,16.4,7.3,22.09,22.09,0,0,0,12.68-3.65,17.66,17.66,0,0,0,7.2-10.39h24.61A41.25,41.25,0,0,1,629,124.16Q617.17,133.46,599.85,133.46Z"/><path d="M659.93,131.27V0h23.34V77.49l32.09-36.65h27.71l-37,41.21,43,49.22H719.92l-36.65-45.4v45.4Z"/><path class="cls-1" d="M175,26.8A14.76,14.76,0,0,1,164.55,23a12.62,12.62,0,0,1-4.1-9.66,12.34,12.34,0,0,1,4.1-9.57,16.55,16.55,0,0,1,21,0,12.35,12.35,0,0,1,4.11,9.57A12.63,12.63,0,0,1,185.51,23,14.76,14.76,0,0,1,175,26.8ZM163.36,131.27V40.84H186.7v90.43Z"/><path class="cls-1" d="M211.13,131.27V40.84h20.78l2.19,17a36.76,36.76,0,0,1,33.37-19.15V63.27H260.9a37.07,37.07,0,0,0-13.67,2.37,18.42,18.42,0,0,0-9.39,8.2q-3.37,5.84-3.37,16.23v41.2Z"/><path class="cls-1" d="M143.42,131.27H125.76a26.21,26.21,0,0,1-24-15.68L90.39,89.72,35.65,127.23A22.75,22.75,0,0,1,2,99.31L39.38,14.07A23.07,23.07,0,0,1,60.77.1h0a23.36,23.36,0,0,1,21.39,14l18.07,41.18,22.1-15.14,9.38,21.29L109.59,76.56l13.1,29.84a3.35,3.35,0,0,0,3.07,2h17.66Zm-119.57-25a.57.57,0,0,0,.84.7L81,68.41l-19.75-45a.57.57,0,0,0-1,0Z"/></svg>